<svg width="26" height="25" viewBox="0 0 26 25" fill="none" xmlns="http://www.w3.org/2000/svg">
<path id="Vector" d="M12.8806 2.72296C18.2995 2.72296 22.7085 7.13199 22.7085 12.5508C22.7085 17.9697 18.2995 22.3787 12.8806 22.3787C7.46177 22.3787 3.05273 17.9697 3.05273 12.5508C3.05273 7.13199 7.46177 2.72296 12.8806 2.72296ZM12.8806 0.265991C6.09569 0.265991 0.595764 5.76592 0.595764 12.5508C0.595764 19.3358 6.09569 24.8357 12.8806 24.8357C19.6655 24.8357 25.1655 19.3358 25.1655 12.5508C25.1655 5.76592 19.6655 0.265991 12.8806 0.265991ZM19.023 11.3224H14.1091V6.40842H11.6521V11.3224H6.73819V13.7793H11.6521V18.6933H14.1091V13.7793H19.023V11.3224Z" fill="#F3F3F3"/>
</svg>
