<svg width="18" height="18" viewBox="0 0 18 18" fill="none" xmlns="http://www.w3.org/2000/svg">
<path id="Vector" d="M16.92 17.73C17.38 18.19 18.09 17.48 17.63 17.03L13.88 13.27C15.1954 11.8145 15.9226 9.92183 15.92 7.96C15.92 3.57 12.35 0 7.96 0C3.57 0 0 3.57 0 7.96C0 12.35 3.57 15.92 7.96 15.92C9.94 15.92 11.77 15.19 13.17 13.98L16.92 17.73ZM0.999 7.96C0.999 4.12 4.129 1 7.959 1C11.799 1 14.919 4.12 14.919 7.96C14.919 11.8 11.799 14.92 7.959 14.92C4.129 14.92 0.999 11.8 0.999 7.96Z" fill="#F3F3F3"/>
</svg>
