<svg width="131" height="131" viewBox="0 0 131 131" fill="none" xmlns="http://www.w3.org/2000/svg">
<g id="Group">
<path id="Vector" fill-rule="evenodd" clip-rule="evenodd" d="M89.3182 47.6363C89.3182 53.9533 86.8088 60.0115 82.342 64.4783C77.8752 68.9451 71.817 71.4545 65.5 71.4545C59.183 71.4545 53.1248 68.9451 48.658 64.4783C44.1912 60.0115 41.6818 53.9533 41.6818 47.6363C41.6818 41.3193 44.1912 35.2611 48.658 30.7943C53.1248 26.3275 59.183 23.8181 65.5 23.8181C71.817 23.8181 77.8752 26.3275 82.342 30.7943C86.8088 35.2611 89.3182 41.3193 89.3182 47.6363ZM77.4091 47.6363C77.4091 50.7948 76.1544 53.8239 73.921 56.0573C71.6876 58.2907 68.6585 59.5454 65.5 59.5454C62.3415 59.5454 59.3124 58.2907 57.079 56.0573C54.8456 53.8239 53.5909 50.7948 53.5909 47.6363C53.5909 44.4778 54.8456 41.4487 57.079 39.2153C59.3124 36.9819 62.3415 35.7272 65.5 35.7272C68.6585 35.7272 71.6876 36.9819 73.921 39.2153C76.1544 41.4487 77.4091 44.4778 77.4091 47.6363Z" fill="#F3F3F3"/>
<path id="Vector_2" fill-rule="evenodd" clip-rule="evenodd" d="M65.5 0C29.3261 0 0 29.3261 0 65.5C0 101.674 29.3261 131 65.5 131C101.674 131 131 101.674 131 65.5C131 29.3261 101.674 0 65.5 0ZM11.9091 65.5C11.9091 77.945 16.1547 89.4015 23.2704 98.5001C28.2676 91.9376 34.7144 86.6193 42.1072 82.9606C49.4999 79.3019 57.6385 77.4019 65.887 77.4091C74.0289 77.4014 82.065 79.2522 89.3833 82.8205C96.7015 86.3888 103.109 91.5805 108.117 97.9999C113.276 91.2332 116.75 83.3352 118.251 74.9593C119.752 66.5835 119.236 57.9707 116.748 49.8335C114.259 41.6963 109.869 34.2687 103.939 28.1652C98.0103 22.0618 90.713 17.4579 82.6514 14.7346C74.5897 12.0113 65.9954 11.2468 57.5796 12.5044C49.1638 13.762 41.1685 17.0055 34.2551 21.9666C27.3418 26.9277 21.7091 33.4638 17.8233 41.0339C13.9375 48.6041 11.9102 56.9908 11.9091 65.5ZM65.5 119.091C53.1976 119.109 41.2666 114.877 31.7258 107.11C35.5661 101.613 40.6775 97.1241 46.6252 94.0264C52.573 90.9286 59.181 89.3134 65.887 89.3182C72.5095 89.3129 79.0376 90.8876 84.9292 93.9117C90.8209 96.9357 95.9061 101.322 99.7625 106.705C90.1476 114.724 78.0199 119.108 65.5 119.091Z" fill="#F3F3F3"/>
</g>
</svg>
