<svg width="31" height="21" viewBox="0 0 31 21" fill="none" xmlns="http://www.w3.org/2000/svg">
<path id="Vector" d="M4.15909 0.390381C2.28957 0.390381 0.772278 1.90767 0.772278 3.77719V17.3244C0.772278 19.194 2.28957 20.7112 4.15909 20.7112H26.7378C28.6073 20.7112 30.1246 19.194 30.1246 17.3244V3.77719C30.1246 1.90767 28.6073 0.390381 26.7378 0.390381H4.15909ZM4.15909 2.64825H26.7378C27.3599 2.64825 27.8668 3.15515 27.8668 3.77719V4.34166L15.4485 11.0453L3.03015 4.34166V3.77719C3.03015 3.15515 3.53704 2.64825 4.15909 2.64825ZM3.03015 4.65889L10.4032 10.4097L3.17127 17.8189L11.9917 11.5386L15.4485 13.7615L18.9064 11.5386L27.7256 17.8189L20.4937 10.4097L27.8668 4.65889V17.3244C27.8605 17.4983 27.8121 17.668 27.7256 17.8189C27.5394 18.1858 27.177 18.4534 26.7378 18.4534H4.15909C3.71993 18.4534 3.35754 18.1869 3.17127 17.8189C3.085 17.6683 3.03658 17.4979 3.03015 17.3244V4.65889Z" fill="#F3F3F3"/>
</svg>
