<svg width="26" height="26" viewBox="0 0 26 26" fill="none" xmlns="http://www.w3.org/2000/svg">
<path id="Vector" d="M13.2314 0.0507812C9.91735 0.0544868 6.74007 1.37264 4.39667 3.71604C2.05327 6.05944 0.73512 9.23671 0.731415 12.5508C0.736967 15.8643 2.05571 19.0405 4.39871 21.3835C6.74172 23.7265 9.91791 25.0452 13.2314 25.0508C16.5466 25.0508 19.726 23.7338 22.0702 21.3896C24.4145 19.0454 25.7314 15.866 25.7314 12.5508C25.7314 9.23557 24.4145 6.05615 22.0702 3.71195C19.726 1.36774 16.5466 0.0507813 13.2314 0.0507812ZM20.8344 19.7638C20.1324 18.3478 19.0486 17.1562 17.7054 16.3233C16.3621 15.4905 14.8129 15.0497 13.2324 15.0505C11.652 15.0513 10.1032 15.4938 8.76082 16.328C7.41846 17.1623 6.33595 18.3551 5.63541 19.7718C3.76633 17.8333 2.72486 15.2436 2.73141 12.5508C2.73141 9.76601 3.83766 7.09529 5.80679 5.12616C7.77593 3.15703 10.4466 2.05078 13.2314 2.05078C16.0162 2.05078 18.6869 3.15703 20.656 5.12616C22.6252 7.09529 23.7314 9.76601 23.7314 12.5508C23.7377 15.2398 22.6989 17.8261 20.8344 19.7638ZM13.2314 5.05078C12.3414 5.05078 11.4714 5.3147 10.7313 5.80917C9.99133 6.30363 9.41455 7.00644 9.07396 7.82871C8.73336 8.65097 8.64425 9.55577 8.81788 10.4287C8.99151 11.3016 9.4201 12.1034 10.0494 12.7328C10.6788 13.3621 11.4806 13.7907 12.3535 13.9643C13.2264 14.1379 14.1312 14.0488 14.9535 13.7082C15.7758 13.3676 16.4786 12.7909 16.973 12.0508C17.4675 11.3108 17.7314 10.4408 17.7314 9.55078C17.7314 8.95983 17.615 8.37467 17.3889 7.82871C17.1627 7.28274 16.8313 6.78666 16.4134 6.3688C15.9955 5.95094 15.4995 5.61947 14.9535 5.39332C14.4075 5.16718 13.8224 5.05078 13.2314 5.05078Z" fill="#F3F3F3"/>
</svg>
