<svg width="27" height="24" viewBox="0 0 27 24" fill="none" xmlns="http://www.w3.org/2000/svg">
<path id="Vector" d="M21.5964 18.336L24.989 21.7286M1.91937 1.37305H23.6319M1.91937 9.51526H7.34751M1.91937 17.6575H7.34751M11.4186 13.5864C11.4186 15.026 11.9905 16.4067 13.0085 17.4246C14.0265 18.4426 15.4071 19.0145 16.8468 19.0145C18.2864 19.0145 19.6671 18.4426 20.685 17.4246C21.703 16.4067 22.2749 15.026 22.2749 13.5864C22.2749 12.1467 21.703 10.7661 20.685 9.74809C19.6671 8.73011 18.2864 8.15822 16.8468 8.15822C15.4071 8.15822 14.0265 8.73011 13.0085 9.74809C11.9905 10.7661 11.4186 12.1467 11.4186 13.5864Z" stroke="#F3F3F3" stroke-width="2.71407" stroke-linecap="round" stroke-linejoin="round"/>
</svg>
