<svg width="24" height="23" viewBox="0 0 24 23" fill="none" xmlns="http://www.w3.org/2000/svg">
<g id="streamline:interface-edit-write-2-change-document-edit-modify-paper-pencil-write-writing" clip-path="url(#clip0_1_299)">
<g id="Group">
<path id="Vector" d="M12.8215 14.7858L7.89293 15.673L8.71436 10.6787L18.1279 1.29797C18.2807 1.14398 18.4624 1.02176 18.6626 0.938359C18.8628 0.854953 19.0775 0.812012 19.2944 0.812012C19.5112 0.812012 19.726 0.854953 19.9262 0.938359C20.1264 1.02176 20.3081 1.14398 20.4608 1.29797L22.2022 3.03939C22.3562 3.19212 22.4784 3.37382 22.5618 3.57402C22.6452 3.77422 22.6882 3.98895 22.6882 4.20582C22.6882 4.4227 22.6452 4.63743 22.5618 4.83763C22.4784 5.03783 22.3562 5.21953 22.2022 5.37225L12.8215 14.7858Z" stroke="#F3F3F3" stroke-width="1.64286" stroke-linecap="round" stroke-linejoin="round"/>
<path id="Vector_2" d="M20.2142 15.6073V20.5359C20.2142 20.9716 20.0412 21.3895 19.7331 21.6976C19.425 22.0057 19.0071 22.1787 18.5714 22.1787H2.96424C2.52853 22.1787 2.11066 22.0057 1.80256 21.6976C1.49447 21.3895 1.32138 20.9716 1.32138 20.5359V4.92875C1.32138 4.49303 1.49447 4.07517 1.80256 3.76707C2.11066 3.45897 2.52853 3.28589 2.96424 3.28589H7.89281" stroke="#F3F3F3" stroke-width="1.64286" stroke-linecap="round" stroke-linejoin="round"/>
</g>
</g>
<defs>
<clipPath id="clip0_1_299">
<rect width="23" height="23" fill="white" transform="translate(0.5)"/>
</clipPath>
</defs>
</svg>
